<svg xmlns="http://www.w3.org/2000/svg" width="1200" height="630" viewBox="0 0 1200 630" role="img" aria-labelledby="title desc">
  <title id="title">NOESIS ad — наружная реклама в Грозном</title>
  <desc id="desc">Графическая схема городского рекламного инвентаря</desc>
  <rect width="1200" height="630" fill="#f2efe8"/>
  <g stroke="#dcd6c8" stroke-width="1">
    <path d="M0 90h1200M0 180h1200M0 270h1200M0 360h1200M0 450h1200M0 540h1200"/>
    <path d="M110 0v630M220 0v630M330 0v630M440 0v630M550 0v630M660 0v630M770 0v630M880 0v630M990 0v630M1100 0v630"/>
  </g>
  <path d="M90 490C260 420 360 500 510 400S760 230 1110 135" fill="none" stroke="#22201c" stroke-width="12" stroke-linecap="round"/>
  <g stroke="#f2efe8" stroke-width="8">
    <circle cx="245" cy="438" r="22" fill="#27713f"/>
    <circle cx="520" cy="393" r="22" fill="#8a620c"/>
    <circle cx="760" cy="257" r="22" fill="#8b0000"/>
    <circle cx="1020" cy="168" r="22" fill="#6b655d"/>
  </g>
  <g font-family="'Oswald', 'Arial Narrow', Arial, sans-serif">
    <text x="80" y="118" fill="#22201c" font-size="72" font-weight="600" letter-spacing="3">NOESIS</text>
    <rect x="360" y="60" width="10" height="52" fill="#8b0000"/>
    <text x="386" y="112" fill="#8b0000" font-family="'JetBrains Mono', monospace" font-size="34" font-weight="600" letter-spacing="4">AD</text>
  </g>
  <text x="80" y="565" fill="#22201c" font-family="'Golos Text', Arial, sans-serif" font-size="28" font-weight="600">Наружная реклама на карте Грозного</text>
  <text x="1110" y="565" fill="#8b0000" font-family="'JetBrains Mono', monospace" font-size="16" text-anchor="end">43.318° N · 45.698° E</text>
</svg>
